<?xml version="1.0" encoding="utf-8"?>
<!-- Generator: Adobe Illustrator 17.0.2, SVG Export Plug-In . SVG Version: 6.00 Build 0)  -->
<!DOCTYPE svg PUBLIC "-//W3C//DTD SVG 1.1//EN" "http://www.w3.org/Graphics/SVG/1.1/DTD/svg11.dtd">
<svg version="1.1" id="Layer_1" xmlns="http://www.w3.org/2000/svg" xmlns:xlink="http://www.w3.org/1999/xlink" x="0px" y="0px"
	 width="192.437px" height="220.013px" viewBox="0 0 192.437 220.013" enable-background="new 0 0 192.437 220.013"
	 xml:space="preserve">
<g>
	<polygon fill="#091B28" fill-opacity="0.9" points="191.437,164.532 96.937,219.049 2.437,164.532 2.437,55.5 96.937,0.983 
		191.437,55.5 	"/>
	<path fill="#FFFFFF" d="M96.206,219.564l-0.115-0.128L1.437,164.79V55.242l0.115-0.129L96.26,0.468l0.318,0.128l94.858,54.645
		V164.79l-0.346,0.129L96.206,219.564z M2.437,164.275l94,54.259l94-54.259V55.757l-94-54.259l-94,54.259V164.275z"/>
</g>
<g>
	<path fill="#FFFFFF" d="M144.685,65.452h-0.729v-19.58l-8.701,15.158c-0.123,0.176-0.252,0.257-0.395,0.257h-0.024l-0.017,0.041
		l-0.018-0.041h-0.03c-0.143,0-0.273-0.081-0.385-0.241l-9.008-15.184v19.59h-0.729V44.197h0.113l-0.063-0.324l0.193,0.324h0.092
		c0.163,0,0.301,0.078,0.391,0.218l9.442,15.899l9.139-15.891c0.094-0.149,0.233-0.226,0.396-0.226h0.07l0.246-0.428l-0.087,0.428
		h0.106V65.452z"/>
</g>
<g>
	<path fill="#FFFFFF" d="M57.55,179.033c-0.56,0-1.069-0.05-1.513-0.149c-0.448-0.1-0.864-0.246-1.234-0.434
		c-0.372-0.188-0.719-0.419-1.03-0.686c-0.309-0.266-0.609-0.572-0.891-0.909l-0.126-0.152l0.186-0.186
		c0.033-0.033,0.061-0.057,0.083-0.074c0.112-0.086,0.322-0.112,0.569,0.155c0.087,0.095,0.205,0.215,0.356,0.362
		c0.152,0.147,0.332,0.303,0.537,0.463c0.201,0.158,0.452,0.311,0.747,0.455c0.292,0.142,0.633,0.261,1.012,0.353
		c0.377,0.092,0.816,0.139,1.306,0.139c0.715,0,1.357-0.115,1.91-0.342c0.551-0.227,1.025-0.535,1.407-0.917
		c0.38-0.38,0.675-0.832,0.875-1.341c0.201-0.511,0.302-1.063,0.302-1.641c0-0.476-0.074-0.891-0.219-1.231
		c-0.146-0.343-0.346-0.64-0.593-0.883c-0.254-0.25-0.553-0.466-0.891-0.644c-0.349-0.184-0.727-0.351-1.123-0.496
		c-0.404-0.149-0.819-0.287-1.234-0.412c-0.431-0.129-0.855-0.273-1.261-0.426c-0.417-0.158-0.813-0.338-1.176-0.538
		c-0.376-0.206-0.71-0.46-0.993-0.756c-0.286-0.298-0.517-0.659-0.684-1.072c-0.168-0.412-0.253-0.904-0.253-1.461
		c0-0.542,0.102-1.068,0.305-1.565c0.202-0.498,0.502-0.945,0.892-1.326c0.387-0.379,0.871-0.686,1.439-0.912
		c0.567-0.225,1.221-0.339,1.944-0.339c0.81,0,1.539,0.134,2.167,0.398c0.629,0.265,1.227,0.689,1.775,1.262l0.119,0.125
		l-0.142,0.213c-0.114,0.14-0.228,0.166-0.307,0.166c-0.141,0-0.284-0.092-0.478-0.308c-0.13-0.144-0.327-0.305-0.584-0.479
		c-0.259-0.175-0.599-0.34-1.01-0.49c-0.406-0.149-0.924-0.224-1.542-0.224c-0.631,0-1.196,0.098-1.681,0.291
		c-0.482,0.192-0.891,0.45-1.216,0.768c-0.324,0.317-0.573,0.688-0.741,1.105c-0.17,0.418-0.256,0.861-0.256,1.316
		c0,0.581,0.112,1.069,0.335,1.45c0.226,0.387,0.526,0.718,0.893,0.985c0.375,0.272,0.812,0.501,1.299,0.682
		c0.491,0.183,1.009,0.364,1.54,0.54c0.524,0.173,1.047,0.359,1.555,0.551c0.525,0.199,0.997,0.456,1.404,0.763
		c0.415,0.313,0.755,0.704,1.011,1.164c0.26,0.466,0.391,1.05,0.391,1.739c0,0.686-0.118,1.336-0.35,1.931
		c-0.233,0.598-0.575,1.128-1.017,1.574c-0.442,0.446-0.991,0.802-1.632,1.059C59.093,178.904,58.359,179.033,57.55,179.033z"/>
	<path fill="#FFFFFF" d="M72.166,179.057c-0.926,0-1.774-0.171-2.519-0.51c-0.744-0.338-1.387-0.804-1.912-1.386
		c-0.525-0.581-0.932-1.269-1.209-2.046c-0.276-0.773-0.417-1.609-0.417-2.485v-10.375h0.709v10.352
		c0,0.796,0.124,1.555,0.369,2.255c0.244,0.698,0.599,1.315,1.055,1.833c0.455,0.517,1.019,0.93,1.677,1.228
		c0.656,0.297,1.413,0.448,2.248,0.448c0.836,0,1.592-0.151,2.249-0.448c0.658-0.298,1.222-0.709,1.677-1.222
		c0.456-0.516,0.811-1.129,1.054-1.822c0.245-0.696,0.369-1.453,0.369-2.249v-10.375h0.709v10.375c0,0.875-0.14,1.711-0.417,2.485
		c-0.278,0.779-0.685,1.467-1.21,2.047c-0.525,0.581-1.168,1.046-1.912,1.385C73.94,178.886,73.092,179.057,72.166,179.057z"/>
	<path fill="#FFFFFF" d="M98.865,178.849h-0.662v-15.064l-6.663,11.608c-0.105,0.151-0.216,0.221-0.34,0.224l-0.043,0.1l-0.043-0.1
		c-0.124-0.003-0.235-0.072-0.33-0.207l-6.904-11.637v15.076h-0.662v-16.594h0.075l-0.095-0.478l0.284,0.478h0.045
		c0.143,0,0.266,0.069,0.344,0.193l7.286,12.269l7.052-12.261c0.082-0.132,0.204-0.201,0.348-0.201h0.027l0.335-0.583l-0.122,0.583
		h0.068V178.849z"/>
	<path fill="#FFFFFF" d="M119.622,178.849h-0.662v-15.064l-6.662,11.608c-0.106,0.151-0.217,0.22-0.34,0.224l-0.041,0.096
		l-0.042-0.096c-0.126-0.002-0.238-0.072-0.333-0.207l-6.904-11.636v15.076h-0.662v-16.594h0.074l-0.095-0.478l0.284,0.478h0.045
		c0.144,0,0.266,0.069,0.345,0.193l7.286,12.269l7.052-12.261c0.082-0.132,0.205-0.201,0.349-0.201h0.027l0.313-0.545l-0.108,0.545
		h0.076V178.849z"/>
	<rect x="125.194" y="162.255" fill="#FFFFFF" width="0.708" height="16.594"/>
	<polygon fill="#FFFFFF" points="135.993,178.849 135.284,178.849 135.284,162.94 129.165,162.94 129.165,162.255 142.065,162.255 
		142.065,162.94 135.993,162.94 	"/>
</g>
<g>
	<path fill="#FFFFFF" d="M59.295,64.758h-6.433V43.503h5.63c2.251,0,3.961,0.464,5.082,1.38c1.133,0.927,1.707,2.276,1.707,4.012
		c0,0.641-0.128,1.27-0.381,1.869c-0.252,0.596-0.601,1.138-1.037,1.61c-0.437,0.473-0.966,0.871-1.569,1.183
		c-0.244,0.126-0.497,0.233-0.758,0.32c0.431,0.087,0.838,0.201,1.218,0.342c0.731,0.271,1.364,0.64,1.882,1.096
		c0.522,0.461,0.929,1.014,1.208,1.644c0.279,0.63,0.42,1.34,0.42,2.11c0,0.909-0.159,1.729-0.472,2.438
		c-0.316,0.714-0.783,1.319-1.387,1.799c-0.601,0.477-1.342,0.843-2.202,1.088C61.349,64.635,60.371,64.758,59.295,64.758z
		 M53.651,64.029h5.644c0.977,0,1.864-0.108,2.635-0.32c0.761-0.209,1.414-0.524,1.94-0.936c0.52-0.407,0.921-0.925,1.193-1.539
		c0.274-0.618,0.412-1.347,0.412-2.166c0-0.717-0.145-1.373-0.431-1.949c-0.286-0.577-0.696-1.078-1.219-1.488
		c-0.525-0.411-1.176-0.732-1.935-0.952c-0.765-0.221-1.628-0.333-2.565-0.333h-5.674V64.029z M53.651,53.617h4.99
		c1.079,0,2.002-0.15,2.747-0.446c0.743-0.295,1.354-0.677,1.817-1.136c0.461-0.456,0.8-0.966,1.006-1.514
		c0.208-0.553,0.313-1.101,0.313-1.627c0-1.472-0.492-2.628-1.462-3.433c-0.981-0.816-2.518-1.229-4.57-1.229h-4.841V53.617z"/>
</g>
<path fill="#FAFBFC" d="M133.975,80.509l-13.544,23.419L96.491,62.056l-23.939,41.691L59.008,80.539l-38.64,67.952h0.49h26.558
	h47.919h2.313h47.919h26.401h0.647L133.975,80.509z M133.975,81.262l37.778,66.23h-26.474l-24.561-42.95L133.975,81.262z
	 M120.431,104.921l24.273,42.57H97.359l-0.581-1.131L120.431,104.921z M96.786,147.014h-0.588l0.294-0.514L96.786,147.014z
	 M96.491,62.937l23.652,41.251l-23.652,41.318l-23.652-41.318L96.491,62.937z M96.204,146.24l-0.581,1.252H48.279l24.273-42.449
	L96.204,146.24z M72.265,104.42l-24.56,43.071H21.23l37.778-66.109L72.265,104.42z"/>
</svg>
